<svg xmlns="http://www.w3.org/2000/svg" width="24" height="24" fill="none" viewBox="0 0 24 24"><path fill="currentColor" d="M2 8.25a.75.75 0 0 0 0 1.5v-1.5zm20 1.5a.75.75 0 0 0 0-1.5v1.5zm-19-5h18v-1.5H3v1.5zM21.25 5v16h1.5V5h-1.5zM2.75 21V5h-1.5v16h1.5zm.25.25a.25.25 0 0 1-.25-.25h-1.5c0 .966.784 1.75 1.75 1.75v-1.5zM21.25 21a.25.25 0 0 1-.25.25v1.5A1.75 1.75 0 0 0 22.75 21h-1.5zM21 4.75a.25.25 0 0 1 .25.25h1.5A1.75 1.75 0 0 0 21 3.25v1.5zM3 3.25A1.75 1.75 0 0 0 1.25 5h1.5A.25.25 0 0 1 3 4.75v-1.5zM18.75 5.5V1h-1.5v4.5h1.5zm-12 0V1h-1.5v4.5h1.5zM2 9.75h10v-1.5H2v1.5zm10 0h10v-1.5H12v1.5zm9 11.5h-9v1.5h9v-1.5zm-9 0H3v1.5h9v-1.5z"/><circle cx="7" cy="13" r="1" fill="currentColor"/><circle cx="7" cy="17" r="1" fill="currentColor"/><circle cx="12" cy="13" r="1" fill="currentColor"/><circle cx="12" cy="17" r="1" fill="currentColor"/><circle cx="17" cy="13" r="1" fill="currentColor"/><circle cx="17" cy="17" r="1" fill="currentColor"/></svg>