<?xml version="1.0" encoding="iso-8859-1"?>
<!-- Generator: Adobe Illustrator 19.0.0, SVG Export Plug-In . SVG Version: 6.00 Build 0)  -->
<svg version="1.1" id="Layer_1" xmlns="http://www.w3.org/2000/svg" xmlns:xlink="http://www.w3.org/1999/xlink" x="0px" y="0px"
	 viewBox="0 0 512.004 512.004" style="enable-background:new 0 0 512.004 512.004;" xml:space="preserve">
<g>
	<g>
		<path d="M467.019,106.194l-49.263-6.656c-0.048-0.006-0.095-0.013-0.143-0.019L160.95,64.841
			c-2.154-0.481-4.381-0.755-6.681-0.811c-0.173-0.007-0.345-0.009-0.518-0.012c-0.128-0.001-0.254-0.009-0.383-0.009
			c-13.295,0-24.175,7.187-32.648,19.557L64,127.288V21.335C64,9.553,54.449,0.002,42.667,0.002
			c-11.782,0-21.333,9.551-21.333,21.333v448C9.551,469.336,0,478.887,0,490.669s9.551,21.333,21.333,21.333H64
			c11.782,0,21.333-9.551,21.333-21.333S75.782,469.336,64,469.336V224.267l49.619,52.469c8.997,19.732,21.967,31.903,38.921,32.288
			c0.17,0.007,0.339,0.009,0.509,0.012c0.107,0.001,0.212,0.007,0.319,0.007c2.604,0,5.113-0.285,7.532-0.821l256.716-34.685
			c0.046-0.006,0.091-0.013,0.136-0.018l49.268-6.657c30.434-1.078,44.985-32.173,44.985-80.334S497.453,107.273,467.019,106.194z
			 M401.877,186.517c0,16.805-1.49,32.834-4.176,46.656l-59.28,8.009c3.206-16.546,4.922-35.226,4.922-54.663
			c0-19.427-1.716-38.102-4.922-54.646l59.281,8.009C400.387,153.703,401.877,169.726,401.877,186.517z M149.758,251.331
			c-5.507-16.519-8.785-39.765-8.785-64.805s3.278-48.286,8.785-64.805c1.167-3.501,2.392-6.557,3.61-9.102
			c0.043,0.09,0.086,0.19,0.129,0.281c1.175,2.49,2.355,5.442,3.481,8.82c5.507,16.519,8.785,39.765,8.785,64.805
			s-3.278,48.286-8.785,64.805c-0.802,2.406-1.632,4.584-2.467,6.548l-3.913-4.137C150.315,252.962,150.035,252.161,149.758,251.331
			z M74.386,173.153L99.881,153.5c-1.049,10.509-1.575,21.584-1.575,33.025c0,4.095,0.069,8.143,0.203,12.136L74.386,173.153z
			 M199.399,259.656c0.288-0.975,0.566-1.964,0.84-2.961c0.106-0.387,0.212-0.774,0.316-1.164c0.276-1.034,0.547-2.077,0.808-3.133
			c0.088-0.357,0.173-0.719,0.26-1.079c0.208-0.861,0.411-1.73,0.609-2.605c0.083-0.368,0.168-0.732,0.25-1.102
			c0.239-1.083,0.468-2.178,0.693-3.281c0.087-0.428,0.173-0.859,0.258-1.29c0.212-1.075,0.418-2.156,0.616-3.249
			c0.069-0.379,0.134-0.761,0.201-1.142c0.166-0.942,0.326-1.891,0.482-2.846c0.07-0.431,0.141-0.86,0.21-1.293
			c0.182-1.151,0.356-2.312,0.523-3.481c0.064-0.45,0.126-0.903,0.189-1.356c0.137-0.995,0.269-1.995,0.396-3.002
			c0.058-0.464,0.117-0.927,0.173-1.393c0.13-1.079,0.254-2.166,0.372-3.259c0.052-0.477,0.103-0.954,0.153-1.434
			c0.126-1.215,0.246-2.436,0.357-3.667c0.041-0.455,0.079-0.914,0.118-1.371c0.085-0.99,0.166-1.984,0.242-2.982
			c0.033-0.432,0.068-0.861,0.099-1.295c0.09-1.256,0.172-2.521,0.248-3.79c0.03-0.505,0.059-1.011,0.087-1.518
			c0.071-1.281,0.137-2.566,0.194-3.86c0.018-0.418,0.033-0.84,0.049-1.259c0.042-1.045,0.079-2.094,0.111-3.146
			c0.015-0.489,0.031-0.977,0.044-1.468c0.035-1.298,0.062-2.602,0.082-3.911c0.008-0.52,0.014-1.042,0.02-1.564
			c0.013-1.138,0.021-2.281,0.024-3.427c0.001-0.268,0.006-0.533,0.006-0.802c0-0.266-0.005-0.529-0.005-0.795
			c-0.002-1.151-0.011-2.299-0.024-3.443c-0.006-0.517-0.012-1.033-0.02-1.548c-0.021-1.316-0.048-2.627-0.083-3.931
			c-0.013-0.478-0.029-0.953-0.043-1.429c-0.033-1.076-0.071-2.148-0.114-3.215c-0.016-0.4-0.03-0.802-0.047-1.201
			c-0.057-1.31-0.124-2.611-0.196-3.908c-0.027-0.485-0.055-0.97-0.084-1.453c-0.077-1.29-0.16-2.575-0.252-3.851
			c-0.029-0.399-0.061-0.795-0.091-1.193c-0.079-1.046-0.164-2.087-0.253-3.123c-0.036-0.423-0.072-0.848-0.11-1.269
			c-0.114-1.258-0.236-2.507-0.365-3.748c-0.046-0.443-0.094-0.884-0.141-1.325c-0.127-1.169-0.258-2.332-0.398-3.486
			c-0.044-0.363-0.09-0.725-0.135-1.087c-0.136-1.081-0.278-2.155-0.425-3.223c-0.056-0.408-0.112-0.816-0.17-1.222
			c-0.172-1.206-0.352-2.404-0.54-3.591c-0.06-0.383-0.123-0.762-0.185-1.142c-0.169-1.039-0.344-2.072-0.525-3.096
			c-0.047-0.265-0.091-0.534-0.139-0.798c-0.214-1.186-0.439-2.358-0.669-3.523c-0.075-0.378-0.149-0.754-0.225-1.129
			c-0.233-1.149-0.473-2.29-0.722-3.417c-0.067-0.303-0.137-0.602-0.205-0.904c-0.219-0.969-0.443-1.93-0.674-2.881
			c-0.071-0.293-0.14-0.588-0.212-0.879c-0.273-1.106-0.556-2.197-0.846-3.279c-0.088-0.329-0.177-0.656-0.267-0.983
			c-0.299-1.092-0.604-2.175-0.919-3.241c-0.013-0.045-0.026-0.092-0.039-0.137l93.812,12.675
			c4.704,15.949,7.556,37.531,7.556,60.766c0,23.248-2.851,44.833-7.555,60.783l-93.813,12.675
			C199.34,259.872,199.368,259.762,199.399,259.656z M464.036,222.514c-1.103,2.293-0.321,1.71,1.334,1.71l-2.856,0.192
			l-20.626,2.787c1.737-12.842,2.656-26.577,2.656-40.685c0-14.097-0.919-27.826-2.656-40.664l20.625,2.787l2.856,0.192
			c-1.655,0-2.437-0.584-1.334,1.71c3.224,6.702,5.302,18.869,5.302,35.986S467.26,215.812,464.036,222.514z"/>
	</g>
</g>
<g>
</g>
<g>
</g>
<g>
</g>
<g>
</g>
<g>
</g>
<g>
</g>
<g>
</g>
<g>
</g>
<g>
</g>
<g>
</g>
<g>
</g>
<g>
</g>
<g>
</g>
<g>
</g>
<g>
</g>
</svg>
