<svg xmlns="http://www.w3.org/2000/svg" width="24" height="24" fill="none" viewBox="0 0 24 24"><path fill="currentColor" d="M12.92 18.609c-.014.072-.02.16-.02.26 0 .348.118.522.356.522a.871.871 0 0 0 .42-.13c.155-.087.35-.232.589-.435l.273.674c-.238.333-.595.667-1.072 1-.462.333-1.029.5-1.701.5-.546 0-.974-.109-1.282-.326a1.11 1.11 0 0 1-.462-.935l.021-.217c.084-.754.371-2.942.861-6.565l.336-2.522L10 9.826l.147-.848 3.614-.521.504.239-1.345 9.913zm.231-12.24a1.33 1.33 0 0 1-.987-.434 1.54 1.54 0 0 1-.4-1.044c0-.536.169-.985.505-1.348.35-.362.791-.543 1.323-.543.435 0 .778.145 1.03.435.252.275.378.608.378 1 0 .55-.161 1.014-.483 1.391-.322.362-.777.544-1.366.544z"/></svg>