<svg xmlns="http://www.w3.org/2000/svg" width="24" height="24" fill="none" viewBox="0 0 24 24"><path fill="currentColor" d="M4 16.995l-.75.011.75-.011zm1.048 2.711l.556-.503-.556.503zm2.604 1.276l.05-.748-.05.748zm.328.017l-.03.75h.03V21zM9.3 21v.75h.013L9.3 21zm.717-.009v-.75.75zm1.152 0v-.75.75zm1.151 0v.75-.75zm2.303 0v-.75.75zm3.062.003l.005-.75-.005.75zm.3.002l-.003.75.004-.75zm1.262-.005l.013.75-.013-.75zm2.66-1.178l-.543-.518.543.517zm.602-.825l-.657-.36.657.36zm.377-.97l-.729-.178.729.177zm.114-.945l.75.003v-.003H23zm-2.286-3.604l-.729.18.088.355.333.15.308-.684zm-10.33-1.821l-.07.747.453.042.247-.383-.63-.406zM7.71 12.946l.04.75.38-.02.208-.32-.628-.41zm-2.626 1.24l-.55-.511.55.51zM4.011 16.67l.748.054-.748-.054zm.003.158l.738.132.019-.107-.012-.108-.745.083zM7.47 12.94l.588.464.93-1.177-.59-.465-.928 1.178zm-.051-4.963l-.589-.465.589.465zm4.373-.515l-.464.588.464-.588zm.35 1.815l.2.723 1.445-.398-.199-.723-1.446.398zM3.766 11.38l.745-.088-.176-1.49-.745.088.176 1.49zm-2.238-1.247l-.744.088.175 1.49.745-.088-.176-1.49zm11.605-5.58l-.465.588 1.178.93.464-.59-1.177-.928zm2.463-.7l.465-.59-1.178-.929-.464.589 1.177.93zM4.51 6.636l.588.464.93-1.177-.59-.465-.928 1.178zm-.7-2.464l-.59-.464-.929 1.177.589.465.93-1.178zm4.58-.364l.087.745 1.49-.176-.088-.745-1.49.176zM9.636 1.57L9.548.827l-1.49.175.089.745 1.49-.176zM3.25 17.006a4.845 4.845 0 0 0 1.242 3.203l1.112-1.006a3.345 3.345 0 0 1-.854-2.22l-1.5.023zm1.242 3.203A4.63 4.63 0 0 0 7.6 21.73l.102-1.496a3.13 3.13 0 0 1-2.099-1.03l-1.112 1.005zM7.6 21.73c.114.008.23.014.35.019l.057-1.5a7.082 7.082 0 0 1-.305-.015L7.6 21.73zm.378.02H9.3l.001-1.5H7.98v1.5zm1.334 0c.365-.007.52-.009.704-.009v-1.5c-.198 0-.365.003-.73.01l.026 1.499zm.704-.009h1.152v-1.5h-1.152v1.5zm1.152 0h1.151v-1.5h-1.15l-.001 1.5zm3.454 0h2.304v-1.5h-2.303v1.5zm2.304 0l.754.003.008-1.5c-.38-.002-.55-.002-.762-.002v1.5zm.754.003l.301.002.008-1.5-.3-.002-.009 1.5zm.301.002c.528.003.9.002 1.278-.005l-.026-1.5c-.362.007-.722.008-1.245.005l-.007 1.5zm1.278-.005a4.509 4.509 0 0 0 3.19-1.411l-1.085-1.035a3.008 3.008 0 0 1-2.131.946l.026 1.5zm3.19-1.411c.28-.294.522-.624.717-.982l-1.315-.72a3.187 3.187 0 0 1-.488.667l1.086 1.035zm.717-.981c.199-.362.35-.75.448-1.155l-1.458-.354a3.25 3.25 0 0 1-.305.788l1.315.72zm.448-1.154c.089-.366.134-.742.135-1.12l-1.5-.004c0 .26-.032.52-.093.769l1.458.355zm.135-1.122c0-1.867-1.08-3.546-2.729-4.288l-.615 1.369c1.098.493 1.844 1.628 1.844 2.92h1.5zm-2.308-3.783c-.712-2.894-3.273-5.04-6.284-5.04v1.5c2.277 0 4.27 1.632 4.827 3.899l1.457-.359zm-6.284-5.04c-2.207 0-4.225 1.156-5.406 2.992l1.262.811c.917-1.425 2.47-2.303 4.144-2.303v-1.5zm-4.705 2.651a3.597 3.597 0 0 0-.334-.015v1.5c.065 0 .13.003.194.009l.14-1.494zm-.334-.015a3.62 3.62 0 0 0-3.036 1.65l1.255.82a2.12 2.12 0 0 1 1.781-.97v-1.5zM7.67 12.197a4.59 4.59 0 0 0-3.136 1.478l1.099 1.02a3.09 3.09 0 0 1 2.116-1l-.079-1.498zm-3.136 1.478a4.815 4.815 0 0 0-1.272 2.942l1.496.107c.054-.763.36-1.474.875-2.029l-1.1-1.02zm-1.272 2.942a1.62 1.62 0 0 0 .005.294l1.491-.166a.12.12 0 0 1 0-.021l-1.496-.107zm.012.079a1.62 1.62 0 0 0-.025.31l1.5-.023c0-.008 0-.016.002-.023l-1.477-.264zM8.4 11.762a2.364 2.364 0 0 1-.391-3.32l-1.178-.93a3.864 3.864 0 0 0 .64 5.428l.929-1.178zm-.391-3.32a2.364 2.364 0 0 1 3.32-.392l.929-1.177a3.864 3.864 0 0 0-5.427.64l1.178.929zm3.32-.392c.412.325.685.758.814 1.227l1.447-.398a3.85 3.85 0 0 0-1.332-2.006l-.93 1.177zM3.59 9.89l-2.062.243.176 1.49 2.062-.243-.176-1.49zm10.72-4.408l1.286-1.63-1.177-.93-1.286 1.63 1.177.93zm-8.87-.023L3.81 4.173l-.93 1.178 1.63 1.286.93-1.178zm4.44-1.826l-.243-2.062-1.49.176.244 2.062 1.49-.176zm2.441 18.108h2.303v-1.5H12.32v1.5z"/></svg>