<?xml version="1.0" encoding="UTF-8" standalone="no"?>
<!DOCTYPE svg PUBLIC "-//W3C//DTD SVG 1.1//EN" "http://www.w3.org/Graphics/SVG/1.1/DTD/svg11.dtd">
<svg width="100%" height="100%" viewBox="0 0 24 24" version="1.1" xmlns="http://www.w3.org/2000/svg"
     xmlns:xlink="http://www.w3.org/1999/xlink" xml:space="preserve" xmlns:serif="http://www.serif.com/"
     style="fill-rule:evenodd;clip-rule:evenodd;stroke-linejoin:round;stroke-miterlimit:2;">
    <path d="M6,14.03C6.549,14.03 7,14.481 7,15.03C7,15.58 6.55,16.03 6,16.03C3.24,16.03 1,13.79 1,11.03C1,8.27 3.24,6.03 6,6.03C7,3.68 9.3,2.03 12,2.03C15.43,2.03 18.24,4.69 18.5,8.06L19,8.03C21.194,8.03 23,9.836 23,12.03C23,14.23 21.21,16.03 19,16.03L18,16.03C17.45,16.03 17,15.58 17,15.03C17,14.47 17.45,14.03 18,14.03L19,14.03C20.097,14.03 21,13.127 21,12.03C21,10.933 20.097,10.03 19,10.03L17,10.03L17,9.03C17,6.27 14.76,4.03 12,4.03C9.5,4.03 7.45,5.84 7.06,8.21C6.73,8.09 6.37,8.03 6,8.03C4.354,8.03 3,9.384 3,11.03C3,12.676 4.354,14.03 6,14.03"
          style="fill-rule:nonzero;"/>
    <g id="measure_humidity.svg" transform="matrix(0.654768,0,0,0.654768,12,16.6428)">
        <g transform="matrix(1,0,0,1,-12,-12)">
            <path d="M12,3.25C12,3.25 6,10 6,14C6,17.32 8.69,20 12,20C15.292,20 18,17.292 18,14C18,10 12,3.25 12,3.25M14.47,9.97L15.53,11.03L9.53,17.03L8.47,15.97M9.75,10C10.436,10 11,10.564 11,11.25C11,11.936 10.436,12.5 9.75,12.5C9.064,12.5 8.5,11.936 8.5,11.25C8.5,10.564 9.064,10 9.75,10M14.25,14.5C14.936,14.5 15.5,15.064 15.5,15.75C15.5,16.436 14.936,17 14.25,17C13.564,17 13,16.436 13,15.75C13,15.064 13.564,14.5 14.25,14.5Z"
                  style="fill-rule:nonzero;"/>
        </g>
    </g>
</svg>
