<svg version="1.0" xmlns="http://www.w3.org/2000/svg" width="346.667" height="346.667" viewBox="0 0 260 260"><path d="M161.1 65c-14.6 5.3-24.2 17.4-26.2 32.8-.4 3.7-.8 28.6-.9 55.4V202h28v-15.3c0-12.5.3-15.8 1.8-18.6 2.7-5.4 6.1-7.3 13.9-7.8l7-.5 15.1 19c8.3 10.5 16.3 19.9 17.9 20.9 2.1 1.4 5.2 1.9 13.5 2.1l10.8.4V179l-2.7.6c-4.1.7-8.4-2.4-15.8-11.8-3.6-4.5-6.5-8.5-6.5-8.8 0-.3 2.1-1.3 4.6-2.4 12.1-5 22.4-16.4 26.4-29.5 2.4-7.6 2.9-22.1 1-29.2-3.9-14.8-15.3-26.5-31-32-5.9-2.1-8.5-2.4-29-2.6-20.4-.3-23-.1-27.9 1.7zm50.3 28.4c7.6 3.7 10.9 8.6 11.4 17 .3 5.2 0 6.9-2.5 11.6-2.3 4.4-3.9 5.9-8.2 8.2-5.2 2.7-5.7 2.8-22.1 2.8-11.9 0-18.1.4-21.6 1.5-2.7.8-5.3 1.5-5.7 1.5-.5 0-.7-8.5-.5-18.9l.3-19 3-3.1c1.6-1.7 4.3-3.5 6-4 1.6-.5 10-.8 18.6-.6 14.8.2 16 .4 21.3 3zM9.3 90.7c.6 26 1.3 29.8 7 40.8 6.5 12.3 20.4 22.5 34.5 25.4 13.3 2.8 28.1.2 36.7-6.3l3.5-2.7v6.4c0 11.2-7 21-20.6 28.7-3.7 2.2-5.2 3.6-4.7 4.4 2.6 4.3 16.1 19.5 17.3 19.5 2.8.1 16.6-9.7 21.8-15.4 2.8-3 6.2-7.9 7.6-10.8 5.4-11.2 5.6-13.2 5.6-65.4V67H91v22.6c0 15-.4 24.1-1.2 26.8-3.5 11.6-20.1 18-35.3 13.7-6.2-1.8-14.4-9.7-16.4-15.6-.8-2.5-1.5-11.9-1.8-25.8L35.7 67h-27l.6 23.7z"/></svg>